<?xml version="1.0" encoding="UTF-8"?>
<svg width="256" height="256" enable-background="new 0 0 1000 1000" version="1.1" viewBox="0 0 256 256" xml:space="preserve" xmlns="http://www.w3.org/2000/svg">

<g transform="matrix(.21933 0 0 .21933 18.338 18.331)"><path fill="#fff" d="m525.3 989.5c-284.1 0-515.3-231.2-515.3-515.4 0-196.8 109.6-373.6 285.9-461.4 7.9-3.9 17.5-2.4 23.7 3.8s7.9 15.8 4 23.7c-32.2 65.4-48.5 135.7-48.5 208.9 0 261.4 212.7 474.1 474.1 474.1 74 0 145-16.7 211-49.5 7.9-3.9 17.5-2.4 23.7 3.8 6.3 6.3 7.9 15.8 3.9 23.7-87.3 177.8-264.5 288.3-462.5 288.3z"/></g>
</svg>
