<?xml version="1.0" encoding="UTF-8"?>
<svg width="256" height="256" version="1.1" viewBox="0 0 256 256" xml:space="preserve" xmlns="http://www.w3.org/2000/svg">
<g transform="matrix(.41309 0 0 .41309 22.249 22.249)">
	
		
			<path d="m256 108.94c-81.091 0-147.06 65.973-147.06 147.06s65.973 147.06 147.06 147.06 147.06-65.973 147.06-147.06-65.973-147.06-147.06-147.06zm0 261.45c-63.071 0-114.38-51.312-114.38-114.38s51.312-114.38 114.38-114.38 114.38 51.312 114.38 114.38-51.312 114.38-114.38 114.38z"/>
			<path d="m256 83.708c9.024 0 16.34-7.316 16.34-16.34v-51.028c0-9.024-7.316-16.34-16.34-16.34s-16.34 7.316-16.34 16.34v51.027c0 9.024 7.316 16.341 16.34 16.341z"/>
			<path d="m256 428.29c-9.024 0-16.34 7.316-16.34 16.34v51.027c0 9.024 7.316 16.34 16.34 16.34s16.34-7.316 16.34-16.34v-51.027c0-9.023-7.316-16.34-16.34-16.34z"/>
			<path d="m111.06 134.17c6.38 6.381 16.727 6.381 23.109 0 6.381-6.38 6.381-16.727 0-23.109l-36.082-36.081c-6.38-6.381-16.727-6.381-23.109 0-6.381 6.38-6.381 16.727 0 23.109z"/>
			<path d="m400.94 377.83c-6.38-6.381-16.727-6.38-23.109 0-6.381 6.38-6.381 16.727 0 23.109l36.081 36.082c6.38 6.382 16.727 6.382 23.109 0 6.382-6.38 6.382-16.727 0-23.109z"/>
			<path d="m83.708 256c0-9.024-7.316-16.34-16.34-16.34h-51.028c-9.024 0-16.34 7.316-16.34 16.34s7.316 16.34 16.34 16.34h51.027c9.024 0 16.341-7.316 16.341-16.34z"/>
			<path d="m495.66 239.66h-51.027c-9.024 0-16.34 7.316-16.34 16.34s7.316 16.34 16.34 16.34h51.027c9.024 0 16.34-7.316 16.34-16.34s-7.316-16.34-16.34-16.34z"/>
			<path d="m111.06 377.83-36.081 36.082c-6.381 6.382-6.381 16.727 0 23.109 6.38 6.382 16.727 6.383 23.109 0l36.081-36.082c6.381-6.381 6.381-16.727 0-23.109s-16.728-6.382-23.109 0z"/>
			<path d="m400.94 134.17 36.081-36.082c6.382-6.381 6.382-16.727 0-23.109-6.38-6.381-16.727-6.381-23.109 0l-36.081 36.082c-6.381 6.381-6.381 16.727 0 23.109 6.381 6.381 16.728 6.382 23.109 0z"/>
		
	
</g>















</svg>
