<?xml version="1.0" encoding="UTF-8" standalone="no"?>
<svg
   xmlns:dc="http://purl.org/dc/elements/1.1/"
   xmlns:cc="http://creativecommons.org/ns#"
   xmlns:rdf="http://www.w3.org/1999/02/22-rdf-syntax-ns#"
   xmlns:svg="http://www.w3.org/2000/svg"
   xmlns="http://www.w3.org/2000/svg"
   xmlns:sodipodi="http://sodipodi.sourceforge.net/DTD/sodipodi-0.dtd"
   xmlns:inkscape="http://www.inkscape.org/namespaces/inkscape"
   version="1.1"
   id="Layer_1"
   x="0px"
   y="0px"
   viewBox="0 0 383.748 383.748"
   style="enable-background:new 0 0 383.748 383.748;"
   xml:space="preserve"
   sodipodi:docname="refresh-dark.svg"
   inkscape:version="1.0.1 (3bc2e813f5, 2020-09-07)"><metadata
   id="metadata43"><rdf:RDF><cc:Work
       rdf:about=""><dc:format>image/svg+xml</dc:format><dc:type
         rdf:resource="http://purl.org/dc/dcmitype/StillImage" /></cc:Work></rdf:RDF></metadata><defs
   id="defs41" /><sodipodi:namedview
   pagecolor="#ffffff"
   bordercolor="#666666"
   borderopacity="1"
   objecttolerance="10"
   gridtolerance="10"
   guidetolerance="10"
   inkscape:pageopacity="0"
   inkscape:pageshadow="2"
   inkscape:window-width="1366"
   inkscape:window-height="705"
   id="namedview39"
   showgrid="false"
   inkscape:zoom="0.49566833"
   inkscape:cx="188.74912"
   inkscape:cy="312.2484"
   inkscape:window-x="-8"
   inkscape:window-y="-8"
   inkscape:window-maximized="1"
   inkscape:current-layer="Layer_1" />
















<g
   id="g6"
   transform="matrix(0.72938717,0,0,0.742393,51.923559,49.427707)"><path
     d="M 62.772,95.042 C 90.904,54.899 137.496,30 187.343,30 c 83.743,0 151.874,68.13 151.874,151.874 h 30 C 369.217,81.588 287.629,0 187.343,0 152.305,0 118.282,9.989 88.952,28.888 70.368,40.862 54.245,56.032 41.221,73.593 L 2.081,34.641 v 113.365 h 113.91 z"
     id="path2" /><path
     d="m 381.667,235.742 h -113.91 l 53.219,52.965 c -28.132,40.142 -74.724,65.042 -124.571,65.042 -83.744,0 -151.874,-68.13 -151.874,-151.874 h -30 c 0,100.286 81.588,181.874 181.874,181.874 35.038,0 69.062,-9.989 98.391,-28.888 18.584,-11.975 34.707,-27.145 47.731,-44.706 l 39.139,38.952 V 235.742 Z"
     id="path4" /></g><g
   id="g8"
   transform="matrix(0.72938717,0,0,0.742393,51.923559,49.427707)" /><g
   id="g10"
   transform="matrix(0.72938717,0,0,0.742393,51.923559,49.427707)" /><g
   id="g12"
   transform="matrix(0.72938717,0,0,0.742393,51.923559,49.427707)" /><g
   id="g14"
   transform="matrix(0.72938717,0,0,0.742393,51.923559,49.427707)" /><g
   id="g16"
   transform="matrix(0.72938717,0,0,0.742393,51.923559,49.427707)" /><g
   id="g18"
   transform="matrix(0.72938717,0,0,0.742393,51.923559,49.427707)" /><g
   id="g20"
   transform="matrix(0.72938717,0,0,0.742393,51.923559,49.427707)" /><g
   id="g22"
   transform="matrix(0.72938717,0,0,0.742393,51.923559,49.427707)" /><g
   id="g24"
   transform="matrix(0.72938717,0,0,0.742393,51.923559,49.427707)" /><g
   id="g26"
   transform="matrix(0.72938717,0,0,0.742393,51.923559,49.427707)" /><g
   id="g28"
   transform="matrix(0.72938717,0,0,0.742393,51.923559,49.427707)" /><g
   id="g30"
   transform="matrix(0.72938717,0,0,0.742393,51.923559,49.427707)" /><g
   id="g32"
   transform="matrix(0.72938717,0,0,0.742393,51.923559,49.427707)" /><g
   id="g34"
   transform="matrix(0.72938717,0,0,0.742393,51.923559,49.427707)" /><g
   id="g36"
   transform="matrix(0.72938717,0,0,0.742393,51.923559,49.427707)" /></svg>
